<?xml version="1.0" encoding="iso-8859-1"?>
<!-- Generator: Adobe Illustrator 19.0.0, SVG Export Plug-In . SVG Version: 6.00 Build 0)  -->
<svg version="1.1" id="Layer_1" xmlns="http://www.w3.org/2000/svg" xmlns:xlink="http://www.w3.org/1999/xlink" x="0px" y="0px"
	 viewBox="0 0 512 512" style="enable-background:new 0 0 512 512;" xml:space="preserve">
<circle style="fill:#273B7A;" cx="256" cy="256" r="256"/>
<path style="fill:#121149;" d="M259.351,511.957c134.032-1.722,243.217-106.432,252.052-238.635L386.255,148.173l-93.034,184.698
	l-12.8-12.8l-142.089,70.868L259.351,511.957z"/>
<path style="fill:#FFC61B;" d="M155.295,398.222h201.411c12.933,0,23.416-10.483,23.416-23.416V181.01H131.879v193.796
	C131.879,387.739,142.362,398.222,155.295,398.222z"/>
<path style="fill:#EAA22F;" d="M256.288,181.01v217.212h100.418c12.933,0,23.416-10.483,23.416-23.416V181.01H256.288z"/>
<path style="fill:#FF5419;" d="M392.189,199.111H119.811v-38.028c0-9.418,7.635-17.051,17.053-17.051h238.273
	c9.418,0,17.051,7.635,17.051,17.051V199.111z"/>
<path style="fill:#C92F00;" d="M392.189,161.083c0-9.418-7.635-17.051-17.051-17.051h-118.85v55.079h135.901V161.083z"/>
<rect x="199.111" y="227.556" style="fill:#E09112;" width="113.778" height="28.444"/>
<rect x="256.293" y="227.556" style="fill:#FF5419;" width="56.601" height="28.444"/>
<g>
</g>
<g>
</g>
<g>
</g>
<g>
</g>
<g>
</g>
<g>
</g>
<g>
</g>
<g>
</g>
<g>
</g>
<g>
</g>
<g>
</g>
<g>
</g>
<g>
</g>
<g>
</g>
<g>
</g>
</svg>
